HIERARCHY
ROOT hip
{
  OFFSET 0 0 0
  CHANNELS 6 Xposition Yposition Zposition Zrotation Yrotation Xrotation
  JOINT abdomen
  {
    OFFSET 0 20.6881 -0.73152
    CHANNELS 3 Zrotation Xrotation Yrotation
    JOINT chest
    {
      OFFSET 0 11.7043 -0.48768
      CHANNELS 3 Zrotation Xrotation Yrotation
      JOINT neck
      {
        OFFSET 0 22.1894 -2.19456
        CHANNELS 3 Zrotation Xrotation Yrotation
        JOINT head
        {
          OFFSET -0.24384 7.07133 1.2192
          CHANNELS 3 Zrotation Xrotation Yrotation
          JOINT leftEye
          {
            OFFSET 4.14528 8.04674 8.04672
            CHANNELS 3 Zrotation Xrotation Yrotation
            End Site
            {
              OFFSET 1 0 0
            }
          }
          JOINT rightEye
          {
            OFFSET -3.6576 8.04674 8.04672
            CHANNELS 3 Zrotation Xrotation Yrotation
            End Site
            {
              OFFSET 1 0 0
            }
          }
        }
      }
      JOINT rCollar
      {
        OFFSET -2.68224 19.2634 -4.8768
        CHANNELS 3 Zrotation Xrotation Yrotation
        JOINT rShldr
        {
          OFFSET -8.77824 -1.95073 1.46304
          CHANNELS 3 Zrotation Xrotation Yrotation
          JOINT rForeArm
          {
            OFFSET -28.1742 -1.7115 0.48768
            CHANNELS 3 Zrotation Xrotation Yrotation
            JOINT rHand
            {
              OFFSET -22.5879 0.773209 7.07136
              CHANNELS 3 Zrotation Xrotation Yrotation
              JOINT rThumb1
              {
                OFFSET -1.2192 -0.487915 3.41376
                CHANNELS 3 Zrotation Xrotation Yrotation
                JOINT rThumb2
                {
                  OFFSET -3.37035 -0.52449 3.41376
                  CHANNELS 3 Zrotation Xrotation Yrotation
                  End Site
                  {
                    OFFSET -1.78271 -1.18214 1.43049
                  }
                }
              }
              JOINT rIndex1
              {
                OFFSET -7.75947 0.938293 5.60832
                CHANNELS 3 Zrotation Xrotation Yrotation
                JOINT rIndex2
                {
                  OFFSET -2.54057 -0.884171 1.56538
                  CHANNELS 3 Zrotation Xrotation Yrotation
                  End Site
                  {
                    OFFSET -1.62519 -0.234802 1.16502
                  }
                }
              }
              JOINT rMid1
              {
                OFFSET -8.24714 1.18213 3.41376
                CHANNELS 3 Zrotation Xrotation Yrotation
                JOINT rMid2
                {
                  OFFSET -3.10165 -0.590103 1.0647
                  CHANNELS 3 Zrotation Xrotation Yrotation
                  End Site
                  {
                    OFFSET -2.48547 -0.328903 0.83742
                  }
                }
              }
              JOINT rRing1
              {
                OFFSET -8.82822 0.546677 1.51678
                CHANNELS 3 Zrotation Xrotation Yrotation
                JOINT rRing2
                {
                  OFFSET -2.60934 -0.819778 -0.0198488
                  CHANNELS 3 Zrotation Xrotation Yrotation
                  End Site
                  {
                    OFFSET -2.33842 -0.294052 0.168128
                  }
                }
              }
              JOINT rPinky1
              {
                OFFSET -8.27202 -0.0477905 -0.4584
                CHANNELS 3 Zrotation Xrotation Yrotation
                JOINT rPinky2
                {
                  OFFSET -1.82734 -0.647385 -0.700984
                  CHANNELS 3 Zrotation Xrotation Yrotation
                  End Site
                  {
                    OFFSET -1.69225 -0.51767 -0.607171
                  }
                }
              }
            }
          }
        }
      }
      JOINT lCollar
      {
        OFFSET 2.68224 19.2634 -4.8768
        CHANNELS 3 Zrotation Xrotation Yrotation
        JOINT lShldr
        {
          OFFSET 8.77824 -1.95073 1.46304
          CHANNELS 3 Zrotation Xrotation Yrotation
          JOINT lForeArm
          {
            OFFSET 28.1742 -1.7115 0.48768
            CHANNELS 3 Zrotation Xrotation Yrotation
            JOINT lHand
            {
              OFFSET 22.5879 0.773209 7.07136
              CHANNELS 3 Zrotation Xrotation Yrotation
              JOINT lThumb1
              {
                OFFSET 1.2192 -0.487915 3.41376
                CHANNELS 3 Zrotation Xrotation Yrotation
                JOINT lThumb2
                {
                  OFFSET 3.37035 -0.52449 3.41376
                  CHANNELS 3 Zrotation Xrotation Yrotation
                  End Site
                  {
                    OFFSET 1.78271 -1.18214 1.43049
                  }
                }
              }
              JOINT lIndex1
              {
                OFFSET 7.75947 0.938293 5.60832
                CHANNELS 3 Zrotation Xrotation Yrotation
                JOINT lIndex2
                {
                  OFFSET 2.54057 -0.884171 1.56538
                  CHANNELS 3 Zrotation Xrotation Yrotation
                  End Site
                  {
                    OFFSET 1.62519 -0.234802 1.16502
                  }
                }
              }
              JOINT lMid1
              {
                OFFSET 8.24714 1.18213 3.41376
                CHANNELS 3 Zrotation Xrotation Yrotation
                JOINT lMid2
                {
                  OFFSET 3.10165 -0.590103 1.0647
                  CHANNELS 3 Zrotation Xrotation Yrotation
                  End Site
                  {
                    OFFSET 2.48547 -0.328903 0.83742
                  }
                }
              }
              JOINT lRing1
              {
                OFFSET 8.82822 0.546677 1.51678
                CHANNELS 3 Zrotation Xrotation Yrotation
                JOINT lRing2
                {
                  OFFSET 2.60934 -0.819778 -0.0198488
                  CHANNELS 3 Zrotation Xrotation Yrotation
                  End Site
                  {
                    OFFSET 2.33842 -0.294052 0.168128
                  }
                }
              }
              JOINT lPinky1
              {
                OFFSET 8.27202 -0.0477905 -0.4584
                CHANNELS 3 Zrotation Xrotation Yrotation
                JOINT lPinky2
                {
                  OFFSET 1.82734 -0.647385 -0.700984
                  CHANNELS 3 Zrotation Xrotation Yrotation
                  End Site
                  {
                    OFFSET 1.69225 -0.51767 -0.607171
                  }
                }
              }
            }
          }
        }
      }
    }
  }
  JOINT rButtock
  {
    OFFSET -8.77824 4.35084 1.2192
    CHANNELS 3 Zrotation Xrotation Yrotation
    JOINT rThigh
    {
      OFFSET 0 -1.70687 -2.19456
      CHANNELS 3 Zrotation Xrotation Yrotation
      JOINT rShin
      {
        OFFSET 0 -36.8199 0.73152
        CHANNELS 3 Zrotation Xrotation Yrotation
        JOINT rFoot
        {
          OFFSET 0.73152 -45.1104 -5.12064
          CHANNELS 3 Zrotation Xrotation Yrotation
          End Site
          {
            OFFSET -1.1221 -3.69964 12.103
          }
        }
      }
    }
  }
  JOINT lButtock
  {
    OFFSET 8.77824 4.35084 1.2192
    CHANNELS 3 Zrotation Xrotation Yrotation
    JOINT lThigh
    {
      OFFSET 0 -1.70687 -2.19456
      CHANNELS 3 Zrotation Xrotation Yrotation
      JOINT lShin
      {
        OFFSET 0 -36.8199 0.73152
        CHANNELS 3 Zrotation Xrotation Yrotation
        JOINT lFoot
        {
          OFFSET -0.73152 -45.1104 -5.12064
          CHANNELS 3 Zrotation Xrotation Yrotation
          End Site
          {
            OFFSET 1.1221 -3.69964 12.103
          }
        }
      }
    }
  }
}
MOTION
Frames:	4
Frame Time:	0.03333
0.007294855476985181 62.29337428726729 0.1122942330096805 -2.6220343112945557 -3.169308662414551 7.00573205947876 -2.707026720046997 14.1270112991333 3.825956344604492 2.8985989093780518 -9.401622772216797 1.4564883708953857 -5.2115912437438965 14.579930305480957 -3.589900255203247 9.195905685424805 -22.262163162231445 -5.21700382232666 -0.035207200795412064 0.008562811650335789 -0.0015885049942880869 0.029812535271048546 0.019760504364967346 0.04819361865520477 0.22138598561286926 0.03717321902513504 0.0033377250656485558 46.381710052490234 39.809139251708984 17.573116302490234 -25.715145111083984 -26.01043128967285 68.01885223388672 -1.6062664985656738 -9.638045310974121 -1.6990364789962769 0.0016346416668966413 -0.0006771710468456149 0.0032904662657529116 0.04643162339925766 -0.035410135984420776 -0.0004477388574741781 -0.033974386751651764 0.03203238919377327 -0.02557406574487686 7.821072578430176 5.476003646850586 0.3910524547100067 -0.06896210461854935 0.25651106238365173 -0.08672700822353363 2.9476215839385986 0.9018972516059875 0.032892048358917236 -0.015381600707769394 -0.009498071856796741 0.02056911215186119 10.247841835021973 0.830292284488678 -0.06685769557952881 0.01672676019370556 0.052460405975580215 0.06415801495313644 2.2493972778320312 -0.7398989796638489 -0.31607311964035034 0.08837836980819702 -0.02446923777461052 0.03716180473566055 -55.355003356933594 39.63331604003906 -25.073972702026367 24.902889251708984 -23.247589111328125 -64.60183715820312 1.9934601783752441 -14.12020492553711 2.1312243938446045 0.058237213641405106 0.011894715949892998 -0.167140930891037 -0.10493074357509613 0.0026604486629366875 0.0620344839990139 -0.03703836724162102 -0.06517603248357773 0.13305765390396118 -7.778927803039551 5.34950065612793 -0.36521536111831665 0.017944995313882828 -0.005446996074169874 -0.02623037062585354 -2.9842376708984375 1.0300687551498413 -0.16836616396903992 -0.023306313902139664 0.047473981976509094 -0.018784064799547195 -10.298736572265625 0.6971209645271301 -0.06372576951980591 -0.06131961569190025 -0.05203625187277794 -0.12339268624782562 -2.2799458503723145 -0.7605599761009216 0.1920369416475296 -0.005660201422870159 -0.048980314284563065 0.06521385908126831 -24.47509002685547 -43.64366149902344 -18.67744255065918 -1.3350999355316162 65.55510711669922 2.8126354217529297 -4.479196548461914 -11.962520599365234 -9.394815444946289 -0.026682060211896896 -0.04748699441552162 -0.001218265388160944 29.635377883911133 -45.56084442138672 21.51996421813965 1.7156476974487305 65.88126373291016 -2.810218334197998 4.829339981079102 -12.4218111038208 13.220343589782715
0.002305295566585085 62.432389127444566 0.22814848868081858 -3.2535130977630615 0.5522302389144897 10.44568920135498 -2.6404623985290527 14.584537506103516 3.837714195251465 2.599071502685547 -9.78411865234375 1.319283366203308 -4.840286731719971 14.440530776977539 -3.5868327617645264 9.007087707519531 -21.848407745361328 -5.453667163848877 0.05614205822348595 -0.12756429612636566 -0.08271946012973785 0.11595139652490616 -0.04507751017808914 -0.031330887228250504 -0.1456424444913864 0.18642571568489075 0.18224141001701355 46.99301528930664 39.64189529418945 17.82405662536621 -25.771739959716797 -26.501636505126953 68.86258697509766 -1.5754752159118652 -11.462480545043945 -1.5876939296722412 0.21387366950511932 -0.07376477867364883 0.15902391076087952 0.08851063251495361 -0.10184889286756516 -0.04196387529373169 0.08369690179824829 0.1285705268383026 -0.08016450703144073 7.819509506225586 5.600677967071533 0.4232490062713623 -0.022387001663446426 0.015007036738097668 -0.13312457501888275 2.8644049167633057 0.9574438333511353 0.23876740038394928 0.13009053468704224 0.03698398917913437 0.07227723300457001 10.27184009552002 0.6547054648399353 0.09998371452093124 0.09216143935918808 0.12202174961566925 0.13973590731620789 2.2203781604766846 -0.8303592205047607 -0.21107204258441925 0.19178909063339233 -0.11666705459356308 0.0013721452560275793 -54.56639862060547 40.57671356201172 -26.52088737487793 24.82131004333496 -23.421863555908203 -65.91289520263672 1.9657416343688965 -14.297908782958984 2.1403043270111084 0.08709575235843658 -0.1556164026260376 0.048680730164051056 0.1932976245880127 0.0650733932852745 -0.10650499910116196 -0.2142072170972824 0.05526801943778992 -0.1453535556793213 -7.82861328125 5.437758922576904 -0.4432857930660248 0.12963396310806274 0.05793948844075203 -0.07291115075349808 -2.921617031097412 0.8336063623428345 -0.22331443428993225 0.1627247929573059 0.024415191262960434 -0.05488963797688484 -10.091965675354004 0.9409902095794678 -0.15936589241027832 0.04207814857363701 -0.14008741080760956 -0.1897803694009781 -2.2684569358825684 -0.6282234787940979 0.21313492953777313 0.08026297390460968 -0.1729227900505066 0.1093694269657135 -25.321393966674805 -41.114463806152344 -19.21956443786621 -1.412514090538025 64.20492553710938 2.316685676574707 -4.769495964050293 -11.63056755065918 -9.806045532226562 -0.22863617539405823 -0.08454909920692444 0.053507957607507706 30.740633010864258 -42.342552185058594 21.167783737182617 1.7491506338119507 67.17725372314453 -2.7397215366363525 5.190201282501221 -12.096980094909668 13.106927871704102
-0.04759499929247026 69.11824957010577 0.24366342346306122 5.088325023651123 0.5893656015396118 -2.96488618850708 -10.673888206481934 16.835630416870117 3.718289852142334 4.406165599822998 -9.31290054321289 1.0969696044921875 -9.263202667236328 18.070430755615234 -13.468710899353027 11.929997444152832 -26.591100692749023 -23.88440704345703 -0.04007734730839729 -0.4619687795639038 -0.379120409488678 -0.00991884060204029 0.08043139427900314 -0.1509728729724884 0.6535252928733826 0.1656147837638855 0.5113007426261902 34.72454833984375 8.230037689208984 40.82011795043945 -18.41327476501465 -10.566998481750488 37.161399841308594 -0.3807414770126343 16.00566291809082 2.628695011138916 -0.07668562233448029 -0.17813965678215027 0.04426930844783783 -0.2696496248245239 -0.422894150018692 -0.3940431773662567 -0.03676307201385498 0.076416976749897 0.30815044045448303 7.710383415222168 5.803919315338135 0.3761463761329651 0.03102816827595234 0.2344588339328766 -0.2915216386318207 3.0318806171417236 0.9823423027992249 0.20468325912952423 -0.3011602461338043 -0.056416165083646774 -0.2679648697376251 10.360459327697754 0.5820172429084778 -0.282749205827713 0.2790200412273407 0.2199927568435669 0.018300555646419525 2.364614963531494 -1.086402416229248 -0.21502043306827545 0.2208438366651535 0.13969279825687408 0.12901875376701355 -90.65579223632812 57.04111862182617 19.287870407104492 28.00699234008789 -35.3917121887207 -78.44715881347656 3.254504919052124 -44.89263153076172 8.783178329467773 0.3030373156070709 -0.07600629329681396 -0.2642413377761841 -0.3847319185733795 -0.09861575067043304 -0.4676978588104248 0.12401609867811203 0.33075401186943054 0.583562970161438 -8.00091552734375 5.442868709564209 -0.26311755180358887 0.26448339223861694 -0.2736387848854065 0.24946534633636475 -2.845607280731201 0.8676258325576782 -0.05521997809410095 0.19868865609169006 0.08486368507146835 0.05908755585551262 -10.033041000366211 0.6305023431777954 -0.12235318869352341 0.08031410723924637 -0.32505419850349426 -0.5920390486717224 -2.4742836952209473 -0.3238707482814789 0.3576838970184326 -0.2381153553724289 -0.027533510699868202 0.3902339041233063 -38.67735290527344 -57.57239532470703 -29.14116096496582 -1.9748575687408447 68.34747314453125 2.1422197818756104 0.19280365109443665 0.2784273326396942 2.3348395824432373 -0.08207149058580399 -0.5347580909729004 0.04625146463513374 8.214868545532227 -11.060328483581543 4.556668758392334 0.19836705923080444 45.448760986328125 -2.5826575756073 10.159351348876953 -14.922016143798828 27.49628448486328
-0.08108896632174341 68.20125569289654 -0.07992730055431234 3.74074387550354 -50.21405792236328 -5.020968914031982 -12.313612937927246 15.299487113952637 7.867597579956055 4.194830894470215 -8.692856788635254 2.8232645988464355 -9.511834144592285 18.627769470214844 -14.949274063110352 14.360193252563477 -27.860244750976562 -25.830482482910156 0.19048236310482025 -0.03908461332321167 -0.1123209223151207 0.0608728788793087 -0.35272306203842163 -0.4501592814922333 0.16545146703720093 -0.24343831837177277 0.056185875087976456 27.244728088378906 -7.487395763397217 53.958152770996094 -13.191764831542969 -7.547577857971191 20.144948959350586 -0.770443856716156 18.40915870666504 2.8110034465789795 0.12938359379768372 -0.2787017524242401 0.7114927172660828 -0.44400554895401 0.07210645079612732 0.5465711355209351 0.8612315058708191 -0.3521806001663208 0.36519303917884827 8.133702278137207 5.941598415374756 0.9955452680587769 0.14221970736980438 0.7434936165809631 0.1811290830373764 3.289813995361328 1.2040414810180664 0.28979629278182983 0.19584082067012787 -0.03287647292017937 -0.4379737377166748 10.422561645507812 0.180704265832901 0.18033461272716522 0.13487643003463745 -0.36070486903190613 0.02830972708761692 1.823411226272583 -0.6479762196540833 -0.2231527864933014 0.9255875945091248 -0.08876965194940567 0.7437055706977844 -108.52388000488281 50.918636322021484 45.4581298828125 28.369449615478516 -40.5622673034668 -83.7607421875 6.568098068237305 -56.54122543334961 13.413586616516113 0.0236124936491251 -0.7427992224693298 0.30360668897628784 -0.3181787431240082 -0.38838818669319153 -0.3651009500026703 -0.11927507072687149 1.3130813837051392 -0.39223146438598633 -7.867320537567139 5.146285057067871 -0.4581291675567627 -0.13028201460838318 0.042010169476270676 -0.44424334168434143 -3.6269588470458984 0.8309505581855774 0.09675105661153793 0.003096541855484247 -0.30653539299964905 0.15969565510749817 -9.650796890258789 1.1981775760650635 -0.12114337831735611 0.28469619154930115 -1.2712185382843018 -0.5494815111160278 -1.3243768215179443 -0.41474437713623047 0.0818304717540741 0.314927339553833 -0.5683905482292175 -0.46108347177505493 -36.65035629272461 -60.6348762512207 -29.27167320251465 -1.3839503526687622 63.3681640625 1.8910356760025024 -2.5833277702331543 0.7951609492301941 0.42128250002861023 -0.010002591647207737 -0.5631396174430847 -0.6218263506889343 2.003308057785034 -2.7121880054473877 -1.0486302375793457 0.23201371729373932 39.59955978393555 -2.2826967239379883 10.211946487426758 -12.748117446899414 28.780872344970703
